<svg xmlns="http://www.w3.org/2000/svg" viewBox="0 0 2074.144 292.377"><path d="M2034.093 187.309a40.338 40.338 0 0 0-6.537.579 57.445 57.445 0 0 0-101.344-53.826 39.917 39.917 0 0 0-53.631-9.69 57.478 57.478 0 0 0-76.107-65.161l.045-1.767a57.443 57.443 0 1 0-114.885 0 58.165 58.165 0 0 0 .412 6.781 39.929 39.929 0 0 0-62.076 39.726 57.431 57.431 0 0 0-89.212 45.7 57.427 57.427 0 0 0-52.738 8.725 39.97 39.97 0 0 0-68.167-16.906l.114-2.276a40.049 40.049 0 0 0-65.428-30.986 57.445 57.445 0 0 0-113.6 12.12l.134 3.739a39.956 39.956 0 0 0-36.784 6.689 40.715 40.715 0 0 0 .212-4.139A40.019 40.019 0 0 0 1132.73 93a57.443 57.443 0 0 0-106.758-39.516 40.05 40.05 0 0 0-79.081 4.36 40.116 40.116 0 0 0-38.16.022l.011-.417a57.443 57.443 0 1 0-114.474 6.781 39.929 39.929 0 0 0-62.076 39.726 57.431 57.431 0 0 0-89.212 45.7 57.427 57.427 0 0 0-52.738 8.725 39.97 39.97 0 0 0-68.167-16.906l.114-2.276a40.049 40.049 0 0 0-65.428-30.986 57.445 57.445 0 0 0-113.6 12.12l.134 3.739a39.956 39.956 0 0 0-36.784 6.689 40.715 40.715 0 0 0 .212-4.139A40.019 40.019 0 0 0 244.952 93a57.443 57.443 0 0 0-106.758-39.521 40.05 40.05 0 0 0-79.081 4.36A40.066 40.066 0 0 0 0 93.074v199.3h2074.144v-65.011a40.052 40.052 0 0 0-40.051-40.054z" fill="#fff"/></svg>