<svg xmlns="http://www.w3.org/2000/svg" viewBox="0 0 300 300"><polygon points="247.094 211.2 262.594 195.6 262.594 65.5 247.094 50 52.894 50 37.394 65.5 37.394 195.6 52.894 211.2 247.094 211.2" fill="#fff"/><path d="M263.6,65.5a.905.905,0,0,0-.3-.7L247.8,49.3a.912.912,0,0,0-.7-.3H52.9a.918.918,0,0,0-.7.3L36.7,64.8a1.1,1.1,0,0,0-.3.7V195.6a.915.915,0,0,0,.3.7l15.5,15.5a.905.905,0,0,0,.7.3h72.9L117.7,249H105.4a1,1,0,0,0,0,2h89.3a1,1,0,0,0,0-2H182.5l-8.1-36.8h72.7a.9.9,0,0,0,.7-.3l15.5-15.5c.1-.1.2-.2.2-.3a.6.6,0,0,0,.1-.4ZM53.3,51H246.6l14.9,14.9V194.6H38.4V65.9ZM180.5,249H119.8l2.6-11.8h55.5Zm-3.1-13.8H122.8l5.1-23h44.5Zm69.3-25H53.3L39.8,196.6H260.2Z" fill="#226d7a"/><path d="M131.5,149.7c-1.3,0-2.5-.1-3.7-.2l-.6-.1-1.1-6.8a27.983,27.983,0,0,1-6.2-2l-4.9,4.8-.5-.3a32.558,32.558,0,0,1-6.1-4.4l-.4-.4,3.1-6.1a24.5,24.5,0,0,1-3.8-5.3l-6.8,1-.2-.5a36.79,36.79,0,0,1-2.3-7.1l-.1-.5,6.1-3.2a23.585,23.585,0,0,1,0-6.5l-6.1-3.2.1-.5a34.738,34.738,0,0,1,2.3-7.1l.2-.5,6.8,1a34.133,34.133,0,0,1,3.8-5.3L108,90.4l.4-.4a32.648,32.648,0,0,1,6.1-4.4l.5-.3,4.9,4.8a28.105,28.105,0,0,1,6.2-2l1.1-6.8.6-.1a31.363,31.363,0,0,1,7.5,0l.6.1,1.1,6.8a28.071,28.071,0,0,1,6.2,2l4.9-4.8.5.3a32.538,32.538,0,0,1,6.1,4.4l.4.4L152,96.6a24.436,24.436,0,0,1,3.8,5.3l6.8-1,.2.5a36.7,36.7,0,0,1,2.3,7.1l.1.5-6.1,3.2a23.585,23.585,0,0,1,0,6.5l6.1,3.2-.1.5a34.536,34.536,0,0,1-2.3,7.1l-.2.5-6.8-1a33.777,33.777,0,0,1-3.8,5.3l3.1,6.1-.4.4a32.448,32.448,0,0,1-6.1,4.4l-.5.3-4.9-4.8a27.95,27.95,0,0,1-6.2,2l-1.1,6.8-.6.1c-1.3,0-2.5.1-3.8.1Zm0-48.2a13.85,13.85,0,1,0-.1,27.7,14.016,14.016,0,0,0,14-13.9h0A13.914,13.914,0,0,0,131.5,101.5Z" fill="#22b8d1"/><path d="M131.5,150.7c-1.3,0-2.6-.1-3.9-.2l-1.3-.1-1.2-6.8a21.812,21.812,0,0,1-5.1-1.7l-4.9,4.8L114,146a39.23,39.23,0,0,1-6.2-4.5l-1-.9,3.1-6.2a27.534,27.534,0,0,1-3.2-4.4l-6.9,1-.5-1.2a31.272,31.272,0,0,1-2.4-7.3l-.3-1.3,6.1-3.2a36.591,36.591,0,0,1,0-5.4l-6.1-3.2.3-1.3a31.287,31.287,0,0,1,2.4-7.3l.5-1.2,6.9,1a33.029,33.029,0,0,1,3.2-4.4L106.8,90l1-.9a39.23,39.23,0,0,1,6.2-4.5l1.1-.7,4.9,4.9a34.166,34.166,0,0,1,5.1-1.7l1.2-6.8,1.3-.1a33.051,33.051,0,0,1,7.7,0l1.3.1,1.2,6.8a21.874,21.874,0,0,1,5.1,1.7l4.9-4.8,1.1.7a39.139,39.139,0,0,1,6.2,4.5l1,.9L153,96.3a27.411,27.411,0,0,1,3.2,4.4l6.9-1,.5,1.2a31.086,31.086,0,0,1,2.4,7.3l.3,1.3-6.1,3.2a36.319,36.319,0,0,1,0,5.4l6.1,3.2-.3,1.3a31.086,31.086,0,0,1-2.4,7.3l-.5,1.2-6.9-1a32.488,32.488,0,0,1-3.2,4.4l3.1,6.2-1,.9a39.076,39.076,0,0,1-6.2,4.5l-1.1.7-4.9-4.9a33.752,33.752,0,0,1-5.1,1.7l-1.2,6.8-1.3.1C134.1,150.6,132.8,150.7,131.5,150.7Zm-3.4-2.2a39.75,39.75,0,0,0,6.9,0l1.1-6.7.7-.1a29.947,29.947,0,0,0,6-1.9l.6-.3,4.8,4.7a37.676,37.676,0,0,0,5.6-4l-3-6.1.5-.5a26.494,26.494,0,0,0,3.7-5.1l.3-.6,6.7,1a37.649,37.649,0,0,0,2.1-6.5l-6-3.2.1-.7a22.163,22.163,0,0,0,0-6.3l-.1-.7,6-3.2a37.764,37.764,0,0,0-2.1-6.5l-6.7,1-.3-.6a30.032,30.032,0,0,0-3.7-5.1l-.5-.5,3-6.1a31.61,31.61,0,0,0-5.6-4l-4.8,4.7-.6-.3a24.717,24.717,0,0,0-6-1.9l-.7-.1L135,82.2a39.75,39.75,0,0,0-6.9,0L127,88.9l-.8.1a29.988,29.988,0,0,0-6,1.9l-.6.3-4.8-4.7a37.98,37.98,0,0,0-5.6,4l3,6.1-.5.5a26.579,26.579,0,0,0-3.7,5.1l-.3.6-6.7-1a38.114,38.114,0,0,0-2.1,6.5l6,3.2-.1.7a22.163,22.163,0,0,0,0,6.3l.1.7-6,3.2a37.91,37.91,0,0,0,2.1,6.5l6.7-1,.3.6a30.141,30.141,0,0,0,3.7,5.1l.5.5-3,6.1a31.683,31.683,0,0,0,5.6,4l4.8-4.7.6.3a24.7,24.7,0,0,0,6,1.9l.7.1Zm3.4-18.3a14.85,14.85,0,1,1,14.8-14.9h0A14.913,14.913,0,0,1,131.5,130.2Zm0-27.7a12.85,12.85,0,1,0,12.9,12.8h0A12.909,12.909,0,0,0,131.5,102.5Z" fill="#226d7a"/><path d="M182.7,168.8a17.378,17.378,0,0,1-2.2.5l-.3.1-1.8-3.7a17.036,17.036,0,0,1-3.9-.2l-2.1,3.5-.3-.1a19.217,19.217,0,0,1-4.2-1.6l-.3-.2.8-4.1a18.336,18.336,0,0,1-3.1-2.4l-3.8,1.7-.2-.3a21.882,21.882,0,0,1-2.5-3.7l-.2-.3,3-2.8a16.694,16.694,0,0,1-1.1-3.8l-4-.9v-.3a22.655,22.655,0,0,1,.2-4.5l.1-.3,4.1-.5a16.727,16.727,0,0,1,1.4-3.7l-2.8-3.1.2-.3a16.09,16.09,0,0,1,2.8-3.5l.2-.2,3.6,2a14.722,14.722,0,0,1,3.3-2.2l-.4-4.1.3-.1a17.326,17.326,0,0,1,4.3-1.2l.3-.1,1.8,3.7a17.033,17.033,0,0,1,3.9.2l2.1-3.6.3.1a19.178,19.178,0,0,1,4.2,1.6l.3.1-.8,4.1A18.256,18.256,0,0,1,189,137l3.8-1.7.2.3a19.122,19.122,0,0,1,2.5,3.8l.2.3-3,2.8a16.444,16.444,0,0,1,1.1,3.8l4,.9v.3a22.651,22.651,0,0,1-.2,4.5l-.1.3-4.1.5a16.543,16.543,0,0,1-1.4,3.7l2.8,3.1-.2.3a15.9,15.9,0,0,1-2.8,3.5l-.2.2-3.6-2a14.5,14.5,0,0,1-3.3,2.2l.4,4.1-.3.1a8.957,8.957,0,0,1-2.1.8Zm-7.9-27.9a8.359,8.359,0,1,0,10.3,5.8h0a8.308,8.308,0,0,0-10.2-5.828Z" fill="#22b8d1"/><path d="M179.5,170.5l-1.8-3.8a26.174,26.174,0,0,1-2.8-.1l-2.1,3.6-1.1-.3a23.111,23.111,0,0,1-4.4-1.6l-1-.5.8-4.1a18.457,18.457,0,0,1-2.2-1.7l-3.8,1.7-.7-.8a20.5,20.5,0,0,1-2.6-3.9l-.5-1,3.1-2.9a6.56,6.56,0,0,1-.4-1.3c-.1-.4-.2-.9-.3-1.4l-4.1-.9-.1-1.1a24.383,24.383,0,0,1,.2-4.7l.2-1.1,4.2-.5a20.506,20.506,0,0,1,1-2.6l-2.8-3.1.6-.9a20.709,20.709,0,0,1,2.9-3.7l.8-.8,3.7,2a11.482,11.482,0,0,1,2.3-1.5l-.4-4.2,1-.4a25.444,25.444,0,0,1,4.5-1.3l1.1-.2,1.8,3.8a26.419,26.419,0,0,1,2.8.1l2.1-3.6,1.1.3a23.248,23.248,0,0,1,4.4,1.6l1,.5-.8,4.1a18.4,18.4,0,0,1,2.2,1.7l3.8-1.7.7.8a20.286,20.286,0,0,1,2.6,3.9l.5,1-3.1,2.9a6.431,6.431,0,0,1,.4,1.3c.1.4.2.9.3,1.4l4.1.9.1,1.1a24.218,24.218,0,0,1-.2,4.7l-.2,1.1-4.2.5a19.669,19.669,0,0,1-1,2.6l2.8,3.1-.6.9a20.5,20.5,0,0,1-2.9,3.7l-.8.8-3.7-2a11.341,11.341,0,0,1-2.3,1.5l.4,4.2-1,.4c-.7.3-1.5.5-2.2.8h0a18.957,18.957,0,0,1-2.3.5Zm-.5-5.9,1.7,3.7a10.317,10.317,0,0,0,1.7-.4c.6-.2,1.1-.3,1.6-.5l-.4-4,.6-.3a20.361,20.361,0,0,0,3.1-2l.5-.4,3.5,1.9a13.833,13.833,0,0,0,2.1-2.7l-2.7-3,.3-.6a14.818,14.818,0,0,0,1.3-3.5l.2-.7,4-.5a19.409,19.409,0,0,0,.1-3.4l-4-.8-.1-.7a11.811,11.811,0,0,0-.4-1.8l-.6-1.8-.3-.6,3-2.8a29.325,29.325,0,0,0-1.9-2.9l-3.7,1.7-.5-.5a16.388,16.388,0,0,0-2.9-2.3l-.6-.4.8-4a17.54,17.54,0,0,0-3.2-1.2l-2,3.5-.7-.1a23.007,23.007,0,0,0-3.7-.2l-.7.1-1.7-3.7a20.331,20.331,0,0,0-3.3.9l.4,4-.6.3a20.46,20.46,0,0,0-3.1,2l-.5.4-3.5-1.9a13.91,13.91,0,0,0-2.1,2.7l2.7,3-.3.6a14.818,14.818,0,0,0-1.3,3.5l-.2.7-4,.5a19.409,19.409,0,0,0-.1,3.4l4,.8.1.7a11.758,11.758,0,0,0,.4,1.8l.6,1.8.3.6-3,2.8a28.8,28.8,0,0,0,1.9,2.9l3.7-1.7.5.5a20.927,20.927,0,0,0,2.9,2.3l.6.4-.8,4a17.6,17.6,0,0,0,3.2,1.2l2-3.5.7.1a15.274,15.274,0,0,0,3.7.1Zm-1.9-6.4a9.324,9.324,0,0,1-2.5-18.3h0a9.341,9.341,0,0,1,5,18,10.68,10.68,0,0,1-2.5.3Zm-2-16.4a7.315,7.315,0,1,0,9,5.1h0a7.034,7.034,0,0,0-3.5-4.4,7.45,7.45,0,0,0-5.5-.7Z" fill="#226d7a"/></svg>